<?xml version="1.0" encoding="utf-8"?>
<!-- Generator: Adobe Illustrator 21.1.0, SVG Export Plug-In . SVG Version: 6.00 Build 0)  -->
<svg version="1.1" xmlns="http://www.w3.org/2000/svg" xmlns:xlink="http://www.w3.org/1999/xlink" x="0px" y="0px"
	 viewBox="0 0 816 115" style="enable-background:new 0 0 816 115;" xml:space="preserve">
<style type="text/css">
	.st0{fill:#FFFFFF;}
	.st1{fill:none;}
</style>
<g id="Layer_4">
</g>
<g id="Layer_1">
	<title>devlpS</title>
	<path class="st0" d="M264.7,88.9c-1,1-2,1.9-3.1,2.7c-1.2,0.9-2.5,1.7-3.8,2.4c-1.4,0.7-2.9,1.3-4.4,1.7c-1.6,0.4-3.3,0.7-5,0.7
		c-4.4,0-8.7-0.8-12.7-2.6c-3.8-1.7-7.2-4.1-10-7.1c-2.8-3.1-5.1-6.7-6.5-10.6c-3.1-8.4-3.1-17.7,0-26.2c1.5-3.9,3.7-7.5,6.5-10.5
		s6.2-5.4,10-7c4-1.7,8.3-2.6,12.7-2.6c1.7,0,3.4,0.1,5.1,0.5c2.8,0.6,5.5,1.8,7.7,3.6c1.1,0.9,2.1,1.8,3,2.8V15.6c0-1,0.3-2,1-2.7
		c0.8-0.8,1.9-1.2,3-1.1h11.3c0.5,0,0.9,0.1,1.4,0.3s0.9,0.5,1.3,0.8s0.7,0.8,1,1.2c0.3,0.5,0.4,1,0.4,1.6v75.8
		c0,2.6-1.4,3.9-4.1,3.9h-9.9c-0.5,0-1.1-0.1-1.6-0.3c-0.4-0.2-0.7-0.4-0.9-0.7c-0.3-0.4-0.5-0.8-0.7-1.2c-0.2-0.5-0.5-1.1-0.8-1.7
		L264.7,88.9z M235.1,63.1c0,2.1,0.3,4.2,1,6.3c0.7,1.8,1.7,3.5,3,5c1.3,1.4,2.9,2.6,4.6,3.4c1.9,0.8,3.9,1.3,6,1.2
		c2.1,0,4.2-0.4,6.1-1.2c1.9-0.7,3.6-1.8,5-3.2c2.9-2.9,4.7-6.7,4.9-10.8v-0.7c0-2.1-0.4-4.2-1.2-6.2c-0.8-1.9-1.9-3.7-3.4-5.2
		c-1.4-1.5-3.2-2.7-5.1-3.5c-2-0.9-4.1-1.3-6.3-1.3c-2.1,0-4.1,0.4-6,1.3c-1.8,0.8-3.4,2-4.6,3.5c-1.3,1.5-2.3,3.3-3,5.2
		C235.4,58.9,235,61,235.1,63.1z"/>
	<path class="st0" d="M351.1,87.5c-2.9,2.7-6.3,4.9-10,6.4s-7.8,2.3-11.8,2.3c-8.9,0-17.5-3.4-24-9.5c-3.1-3-5.6-6.6-7.4-10.6
		c-1.8-4.2-2.8-8.7-2.7-13.2c0-5.8,1.4-11.4,4.2-16.5c1.3-2.4,3-4.7,4.9-6.7s4-3.8,6.4-5.2c2.4-1.5,5-2.6,7.7-3.4
		c2.9-0.8,5.8-1.2,8.8-1.2c2.8,0,5.5,0.4,8.2,1.1c2.6,0.7,5.1,1.8,7.4,3.1s4.5,3,6.4,4.9s3.6,3.9,5,6.2c1.4,2.2,2.5,4.7,3.2,7.2
		c0.8,2.6,1.1,5.2,1.1,7.9c0,1.8,0,3.2-0.1,4.3c0,0.9-0.3,1.9-0.8,2.7c-0.6,0.7-1.4,1.2-2.4,1.4c-1.6,0.3-3.2,0.4-4.8,0.4h-36.5
		c0.3,1.9,1,3.8,2,5.4c1,1.4,2.2,2.6,3.6,3.5c1.3,0.9,2.8,1.5,4.3,1.8c1.4,0.4,2.9,0.5,4.3,0.6c1.3,0,2.5-0.1,3.8-0.4
		c1.3-0.2,2.5-0.6,3.7-1c1.1-0.4,2.2-0.9,3.3-1.5c0.9-0.5,1.7-1.1,2.4-1.8c0.4-0.4,0.9-0.7,1.4-1c0.4-0.2,0.8-0.3,1.2-0.3
		c0.5,0,0.9,0.2,1.3,0.5c0.6,0.4,1.1,0.8,1.5,1.3l5.4,6.1c0.3,0.3,0.6,0.7,0.7,1.2c0.1,0.4,0.2,0.7,0.1,1.1c0,0.6-0.2,1.2-0.6,1.8
		C352,86.7,351.5,87.2,351.1,87.5z M326.7,45.3c-1.3,0-2.6,0.3-3.8,0.8c-1.2,0.5-2.4,1.2-3.5,2.1c-1.1,0.9-2.1,1.9-2.9,3
		s-1.5,2.2-2.1,3.4h25.9c-0.7-1.3-1.5-2.5-2.3-3.6s-1.8-2.1-2.8-2.9c-1.1-0.9-2.3-1.5-3.6-2C329.9,45.5,328.3,45.3,326.7,45.3
		L326.7,45.3z"/>
	<path class="st0" d="M361.5,35.9c-0.6-1.1-0.8-2.4-0.4-3.5c0.4-1,1.4-1.5,3-1.5h13c0.8,0,1.6,0.2,2.3,0.7c0.7,0.5,1.2,1.2,1.4,2
		c0.6,1.8,1.2,3.8,1.9,6c0.7,2.2,1.4,4.5,2.2,6.9l2.3,7l2,6.4c0.6,1.9,1.2,3.6,1.7,5.1c0.5,1.5,0.9,2.5,1.1,3.1l10.7-34.4
		c0.3-0.9,0.8-1.6,1.5-2.2c0.7-0.4,1.5-0.6,2.4-0.6H420c0.8,0,1.5,0.1,2.2,0.4c0.5,0.2,0.8,0.5,1,1c0.2,0.4,0.2,0.9,0.1,1.4
		c-0.1,0.6-0.3,1.1-0.5,1.6l-24.1,57.8c-0.4,0.6-0.8,1.1-1.3,1.5c-0.7,0.5-1.5,0.7-2.3,0.6h-6c-1,0.1-2-0.1-2.9-0.6
		c-0.6-0.4-1-1-1.2-1.6L361.5,35.9z"/>
	<path class="st0" d="M430.5,15.6c0-1,0.3-1.9,0.8-2.7c0.7-0.8,1.7-1.2,2.8-1.1h12.4c0.4,0,0.7,0.1,1.1,0.3s0.7,0.5,1,0.8
		c0.3,0.4,0.6,0.8,0.8,1.2c0.2,0.5,0.3,1,0.3,1.6v75.7c0.1,1.1-0.3,2.1-1.1,2.9c-0.8,0.7-1.8,1-2.8,1h-11.7c-1,0.1-2.1-0.3-2.8-1
		c-0.6-0.8-0.9-1.9-0.8-2.9L430.5,15.6z"/>
	<path class="st0" d="M463.2,31.5c0.4-0.3,0.9-0.6,1.4-0.7s0.9-0.1,1.4-0.1h7.7c0.5,0,1.1,0.1,1.6,0.3c0.4,0.2,0.7,0.5,1,0.8
		c0.3,0.4,0.5,0.8,0.7,1.2c0.2,0.5,0.4,1,0.5,1.5l2.1,6.1c0.9-1.2,1.9-2.5,2.9-3.7c1-1.3,2.1-2.5,3.4-3.5c1.4-1.1,3-2,4.7-2.6
		c2.2-0.7,4.4-1.1,6.7-1c4.4,0,8.8,0.8,12.8,2.6c3.8,1.6,7.2,4,10.1,7c2.9,3.1,5.1,6.6,6.6,10.5c3.2,8.4,3.2,17.7,0,26.2
		c-1.5,3.9-3.7,7.5-6.6,10.6c-2.8,3-6.3,5.4-10.1,7.1c-4,1.7-8.4,2.6-12.8,2.6c-1.9,0-3.8-0.2-5.7-0.8c-1.5-0.5-2.9-1.2-4.2-2
		c-1.2-0.8-2.3-1.8-3.3-2.8c-0.9-1-1.9-2-2.8-3v23.6c0,0.9-0.3,1.9-0.9,2.6c-0.7,0.8-1.8,1.2-2.8,1.1H466c-0.5,0-0.9-0.1-1.3-0.3
		c-0.5-0.2-0.9-0.4-1.3-0.7c-0.4-0.3-0.7-0.7-1-1.1c-0.3-0.5-0.4-1-0.4-1.5v-77c0-0.6,0.1-1.2,0.4-1.7
		C462.6,32.2,462.9,31.9,463.2,31.5z M510.6,63.1c0-2.1-0.3-4.2-1.1-6.2c-0.7-1.9-1.7-3.6-3-5.1s-2.9-2.6-4.6-3.5
		C500,47.4,498,47,496,47c-2.1,0-4.1,0.4-6.1,1.2c-1.9,0.8-3.5,1.9-5,3.2c-1.5,1.4-2.6,3-3.5,4.8c-0.9,1.9-1.4,3.9-1.5,5.9v0.8
		c0,2.2,0.4,4.3,1.3,6.3c0.8,1.9,2,3.6,3.5,5.1s3.2,2.6,5.1,3.4c2,0.8,4.1,1.3,6.2,1.3c2,0,4.1-0.4,5.9-1.3c1.8-0.8,3.3-2,4.6-3.4
		c1.3-1.5,2.3-3.2,3-5.1C510.2,67.4,510.6,65.3,510.6,63.1z"/>
	<path class="st0" d="M580.5,75.4c0.4-0.3,0.9-0.5,1.3-0.6c0.3-0.1,0.7-0.1,1-0.1c0.5,0,1.1,0.1,1.6,0.4c0.6,0.4,1.1,0.9,1.5,1.5
		l5.7,8.6c0.2,0.3,0.3,0.6,0.5,0.9c0.1,0.3,0.2,0.5,0.2,0.8c0,0.7-0.3,1.4-0.8,1.9s-1,0.9-1.6,1.3c-2.8,1.9-5.9,3.5-9.1,4.6
		c-3.4,1.2-6.9,1.8-10.5,1.8c-3,0-5.9-0.4-8.8-1.2c-2.8-0.8-5.4-1.9-7.9-3.3c-2.4-1.4-4.7-3.2-6.7-5.2s-3.8-4.3-5.2-6.7
		c-1.4-2.5-2.6-5.2-3.3-8c-1.6-5.9-1.6-12,0-17.9c0.8-2.8,1.9-5.5,3.3-8c1.4-2.4,3.2-4.7,5.2-6.7s4.3-3.7,6.7-5.1
		c5.1-2.9,10.8-4.5,16.7-4.5c3.5,0,6.9,0.5,10.2,1.5c3.1,1,6.1,2.5,8.8,4.4l-0.2-0.1c0.7,0.4,1.3,0.9,1.8,1.5s0.7,1.4,0.7,2.2
		c0,0.7-0.2,1.3-0.6,1.9l-4.5,7.6c-0.9,1.7-2.1,2.5-3.5,2.5c-0.4,0-0.8-0.1-1.1-0.2c-0.5-0.2-1-0.5-1.5-0.8c-1.5-1-3.1-1.8-4.8-2.4
		c-1.7-0.6-3.6-1-5.5-0.9c-2,0-4,0.4-5.9,1.3c-1.8,0.8-3.3,2-4.6,3.5s-2.3,3.3-3,5.2c-1.4,4-1.4,8.4,0,12.4c0.7,1.8,1.7,3.5,3,5
		c2.7,3,6.5,4.7,10.5,4.6c1.9,0,3.7-0.3,5.4-1C577.4,77.3,579,76.5,580.5,75.4z"/>
	<path class="st0" d="M599.9,63.1c0-6,1.5-11.8,4.5-17c1.4-2.4,3.2-4.7,5.2-6.7s4.3-3.7,6.7-5.1c5.2-2.9,11-4.5,16.9-4.5
		c8.8-0.1,17.2,3.4,23.5,9.6c3,3,5.4,6.6,7.1,10.5c1.8,4.1,2.6,8.6,2.6,13.1c0,3-0.4,6-1.2,8.9c-0.8,2.8-1.9,5.5-3.3,8
		c-2.9,4.9-7,9-11.9,11.9c-5.1,3-10.9,4.5-16.8,4.5c-3,0-6-0.4-8.9-1.2c-8.4-2.2-15.5-7.7-19.9-15.2c-1.5-2.5-2.6-5.2-3.3-8
		C600.3,69.1,599.9,66.1,599.9,63.1z M618.4,63.1c0,2.1,0.3,4.2,1,6.3c0.6,1.8,1.6,3.5,2.9,5c1.3,1.4,2.9,2.6,4.6,3.4
		c1.9,0.9,4,1.3,6.1,1.2c2.1,0,4.1-0.4,6-1.2c1.7-0.8,3.3-1.9,4.5-3.4c1.3-1.5,2.2-3.2,2.8-5c1.3-4,1.3-8.4,0-12.4
		c-0.6-1.9-1.6-3.7-2.9-5.2c-2.6-3.1-6.4-4.9-10.5-4.8c-2.1,0-4.2,0.4-6.1,1.3c-1.8,0.8-3.3,2-4.6,3.5s-2.3,3.3-2.9,5.2
		C618.7,58.9,618.4,61,618.4,63.1L618.4,63.1z"/>
	<path class="st0" d="M722.4,88.9c-1,1-2,1.9-3.1,2.7c-1.2,0.9-2.5,1.7-3.8,2.4c-1.4,0.7-2.9,1.3-4.4,1.7c-1.6,0.4-3.3,0.7-5,0.7
		c-4.4,0-8.7-0.8-12.7-2.6c-3.8-1.7-7.2-4.1-10-7.1c-2.8-3.1-5.1-6.7-6.5-10.6c-3.1-8.4-3.1-17.7,0-26.2c1.5-3.9,3.7-7.5,6.5-10.5
		s6.2-5.4,10-7c4-1.7,8.3-2.6,12.7-2.6c1.7,0,3.4,0.1,5.1,0.5c2.8,0.6,5.5,1.8,7.7,3.6c1.1,0.9,2.1,1.8,3,2.8V15.6c0-1,0.3-2,1-2.7
		c0.8-0.8,1.9-1.2,3-1.1h11.4c0.5,0,0.9,0.1,1.4,0.3s0.9,0.5,1.3,0.8c0.4,0.3,0.7,0.8,1,1.2c0.3,0.5,0.4,1,0.4,1.6v75.8
		c0,2.6-1.4,3.9-4.1,3.9h-9.9c-0.5,0-1.1-0.1-1.6-0.3c-0.4-0.2-0.7-0.4-0.9-0.7c-0.3-0.4-0.5-0.8-0.7-1.2c-0.2-0.5-0.5-1.1-0.8-1.7
		L722.4,88.9z M692.7,63.1c0,2.1,0.3,4.2,1,6.3c0.7,1.8,1.7,3.5,3,5c1.3,1.4,2.9,2.6,4.6,3.4c1.9,0.8,3.9,1.3,6,1.2
		c2.1,0,4.2-0.4,6.1-1.2c1.9-0.7,3.6-1.8,5-3.2c2.9-2.9,4.7-6.7,4.9-10.8v-0.7c0-2.1-0.4-4.2-1.2-6.2c-0.8-1.9-1.9-3.7-3.4-5.2
		c-1.4-1.5-3.2-2.7-5.1-3.5c-2-0.9-4.1-1.3-6.3-1.3c-2.1,0-4.1,0.4-6,1.3c-1.8,0.8-3.4,2-4.6,3.5c-1.3,1.5-2.3,3.3-3,5.2
		C693,58.9,692.7,61,692.7,63.1L692.7,63.1z"/>
	<path class="st0" d="M808.7,87.5c-2.9,2.7-6.3,4.9-10,6.4s-7.8,2.3-11.8,2.3c-8.9,0-17.5-3.4-24-9.5c-3.1-3-5.6-6.6-7.4-10.6
		c-1.8-4.2-2.8-8.7-2.7-13.2c0-5.8,1.4-11.4,4.2-16.5c1.3-2.4,3-4.7,4.9-6.7s4-3.8,6.4-5.2c2.4-1.5,5-2.6,7.7-3.4
		c2.9-0.8,5.8-1.2,8.8-1.2c2.8,0,5.5,0.4,8.2,1.1c2.6,0.7,5.1,1.8,7.4,3.1c2.3,1.3,4.5,3,6.4,4.9s3.6,3.9,5,6.2
		c1.4,2.2,2.5,4.7,3.2,7.2c0.8,2.6,1.1,5.2,1.1,7.9c0,1.8,0,3.2-0.1,4.3c0,0.9-0.3,1.9-0.8,2.7c-0.6,0.7-1.4,1.2-2.4,1.4
		c-1.6,0.3-3.2,0.4-4.8,0.4h-36.5c0.3,1.9,1,3.8,2,5.4c1,1.4,2.2,2.6,3.6,3.5c1.3,0.9,2.8,1.5,4.3,1.8c1.4,0.4,2.9,0.5,4.3,0.6
		c1.3,0,2.5-0.1,3.8-0.4c1.3-0.2,2.5-0.6,3.7-1c1.1-0.4,2.2-0.9,3.3-1.5c0.9-0.5,1.7-1.1,2.4-1.8c0.4-0.4,0.9-0.7,1.4-1
		c0.4-0.2,0.8-0.3,1.2-0.3c0.5,0,0.9,0.2,1.3,0.5c0.6,0.4,1.1,0.8,1.5,1.3l5.4,6.1c0.3,0.3,0.6,0.7,0.7,1.2c0.1,0.4,0.2,0.7,0.2,1.1
		c0,0.6-0.2,1.2-0.6,1.8C809.7,86.7,809.2,87.2,808.7,87.5z M784.4,45.3c-1.3,0-2.6,0.3-3.8,0.8s-2.4,1.2-3.5,2.1
		c-1.1,0.9-2.1,1.9-2.9,3c-0.8,1-1.5,2.2-2.1,3.4H798c-0.7-1.3-1.4-2.5-2.3-3.6c-0.8-1.1-1.8-2.1-2.8-2.9c-1.1-0.9-2.3-1.5-3.7-2
		C787.6,45.5,786,45.3,784.4,45.3z"/>
	<path class="st1" d="M11.8,37.4C11.8,27.2,20,19,30.1,19h123c10.1,0,18.3,8.2,18.4,18.4v48.5l5.2-0.8V18.4
		c0-6.7-5.5-12.2-12.2-12.2H18.4c-6.7,0-12.2,5.5-12.2,12.2V85l5.6,0.9L11.8,37.4z"/>
	<path class="st1" d="M137.4,42.4H45.8c-6.7,0-12.2,5.5-12.2,12.2v34.8l3.3,0.5V70.8c0-10.1,8.2-18.3,18.4-18.4h72.2
		c10.1,0,18.3,8.2,18.4,18.4v19l3.7-0.6V54.6C149.6,47.9,144.1,42.4,137.4,42.4z"/>
	<path class="st1" d="M153.1,25.2h-123c-6.7,0-12.2,5.5-12.2,12.2v49.5l9.5,1.5V54.6c0-10.1,8.2-18.3,18.4-18.4h91.6
		c10.1,0,18.3,8.2,18.4,18.4v33.7l9.5-1.5V37.4C165.3,30.6,159.8,25.2,153.1,25.2z"/>
	<path class="st0" d="M164.4,0h-146C8.2,0,0,8.2,0,18.4V85c0,1.9,0.3,3.8,0.9,5.6l0,0c2.4,7.6,9.5,12.8,17.5,12.8h119.4v0.1h13.5
		l0.1-0.1h13.2c10.1,0,18.3-8.2,18.4-18.4V18.4C182.8,8.2,174.6,0,164.4,0L164.4,0z M6.2,18.4c0-6.7,5.5-12.2,12.2-12.2h146.1
		c6.7,0,12.2,5.5,12.2,12.2V85l-5.2,0.8V37.4c0-10.1-8.2-18.3-18.4-18.4h-123C20,19,11.7,27.2,11.7,37.3v48.5L6.2,85V18.4z
		 M165.3,86.8l-9.5,1.5V54.6c0-10.1-8.2-18.3-18.4-18.4H45.8c-10.1,0-18.3,8.2-18.4,18.4v33.8l-9.5-1.5V37.4
		c0-6.7,5.5-12.2,12.2-12.2h123c6.7,0,12.2,5.5,12.2,12.2V86.8z M145.9,89.8v-19c0-10.1-8.2-18.3-18.4-18.4H55.3
		c-10.1,0-18.3,8.2-18.4,18.4V90l-3.3-0.5V54.6c0-6.7,5.5-12.2,12.2-12.2h91.6c6.7,0,12.2,5.5,12.2,12.2v34.6L145.9,89.8z
		 M131.6,70.5h-80c-0.6-0.1-1-0.6-1-1.2c0-0.5,0.5-0.9,1-1h80c0.6,0.1,1,0.6,1,1.2C132.5,70,132.1,70.4,131.6,70.5z M132.7,74.3
		c0,0.6-0.5,1.1-1.1,1.1l0,0h-80c-0.6-0.1-1-0.6-1-1.2c0-0.5,0.5-0.9,1-1h80C132.2,73.2,132.7,73.7,132.7,74.3L132.7,74.3z
		 M131.6,65.5h-80c-0.6,0.1-1.1-0.4-1.2-1c-0.1-0.6,0.4-1.1,1-1.2c0.1,0,0.1,0,0.2,0h80c0.6,0.1,1,0.6,1,1.2
		C132.5,65.1,132.1,65.5,131.6,65.5z M50.3,79.2c0-0.6,0.5-1.1,1.1-1.1l0,0h80c0.6,0.1,1,0.6,1,1.2c0,0.5-0.5,0.9-1,1h-80
		C50.8,80.3,50.3,79.8,50.3,79.2z"/>
	<g id="Layer_2">
		<g id="Layer_3">
		</g>
	</g>
</g>
</svg>
